# xmcd
#
# Track frame offsets: 
#        182
#        16042
#        29117
#        44407
#        54792
#        74507
#        92657
#        109697
#        120787
#        132332
#        141617
#        155370
#        169432
#        185852
#        196702
#        209855
#        221482
#        231557
#        245565
#        263750
#
# Disc length: 3728 seconds
#
# Revision: 4
# Processed by: cddbd v1.5.2PL0 Copyright (c) Steve Scherf et al.
# Submitted via: ExactAudioCopy v0.95a4
#
DISCID=310e8e14
DTITLE=Various Artist - Nothing But The Blues [CD 1)
DYEAR=1996
DGENRE=Blues
TTITLE0=Sam Chatmon - Stop And Listen
TTITLE1=Muddy Waters - Hoochie Coochie Man (Live)
TTITLE2=Buddy Guy and Junior Wells - Hoodoo Man Blues
TTITLE3=Big Joe Williams - Highway 49
TTITLE4=Fenton Robinson - Somebody Lone Me A Dime
TTITLE5=Troyce Key and J.J. Malone - It Should've Been Me
TTITLE6=King Biscuit Boy - Necromonica
TTITLE7=Tender Slim - Don't Cut Out On Me
TTITLE8=Clarence Edwards - Done Got Over It
TTITLE9=Billy Boy Arnold - Eldorado Cadillac
TTITLE10=Paul DeLay Band - Who Will Be Next
TTITLE11=Good Rockin' Charles - Don't Start Me To Talkin'
TTITLE12=Big Twist and The Mellow Fellows - Cold Women
TTITLE13=Jody Williams - Moanin' For Molasses
TTITLE14=Bobby Bennett - When Girls Do It
TTITLE15=Screamin' Jay Hawkins - The Whammy
TTITLE16=Roosevelt Sykes - Bad News
TTITLE17=The Clovers - He Sure Could Hypnotize
TTITLE18=Tommy Tucker - Hi Heel Sneakers
TTITLE19=Buster Benton - Spider In My Stew
EXTD=Year: 1996   [CD 1 from 2)
EXTT0=
EXTT1=
EXTT2=
EXTT3=
EXTT4=
EXTT5=
EXTT6=
EXTT7=
EXTT8=
EXTT9=
EXTT10=
EXTT11=
EXTT12=
EXTT13=
EXTT14=
EXTT15=
EXTT16=
EXTT17=
EXTT18=
EXTT19=
PLAYORDER=
